HIERARCHY
ROOT Hips
{
	OFFSET	0.000000	0.000000	0.000000
	CHANNELS 6 Xposition Yposition Zposition Zrotation Xrotation Yrotation
	JOINT LeftUpLeg
	{
		OFFSET	7.620000	0.000000	0.000000
		CHANNELS 3 Zrotation Xrotation Yrotation
		JOINT LeftLeg
		{
			OFFSET	0.000000	-44.449999	0.000000
			CHANNELS 3 Zrotation Xrotation Yrotation
			JOINT LeftFoot
			{
				OFFSET	0.000000	-39.369999	0.000000
				CHANNELS 3 Zrotation Xrotation Yrotation
				JOINT LeftFootHeel
				{
					OFFSET	0.000000	-8.890000	-3.810000
					CHANNELS 3 Zrotation Xrotation Yrotation
					End Site
					{
						OFFSET	0.000000	0.000000	15.240000
					}
				}
			}
		}
	}
	JOINT RightUpLeg
	{
		OFFSET	-7.620000	0.000000	0.000000
		CHANNELS 3 Zrotation Xrotation Yrotation
		JOINT RightLeg
		{
			OFFSET	0.000000	-44.449999	0.000000
			CHANNELS 3 Zrotation Xrotation Yrotation
			JOINT RightFoot
			{
				OFFSET	0.000000	-39.369999	0.000000
				CHANNELS 3 Zrotation Xrotation Yrotation
				JOINT RightFootHeel
				{
					OFFSET	0.000000	-8.890000	-3.810000
					CHANNELS 3 Zrotation Xrotation Yrotation
					End Site
					{
						OFFSET	0.000000	0.000000	15.240000
					}
				}
			}
		}
	}
	JOINT Spine
	{
		OFFSET	0.000000	7.620000	-2.540000
		CHANNELS 3 Zrotation Xrotation Yrotation
		JOINT Spine1
		{
			OFFSET	0.000000	7.620000	0.000000
			CHANNELS 3 Zrotation Xrotation Yrotation
			JOINT LeftCollar
			{
				OFFSET	7.620000	33.020000	2.540000
				CHANNELS 3 Zrotation Xrotation Yrotation
				JOINT LeftShoulder
				{
					OFFSET	12.700000	0.000000	0.000000
					CHANNELS 3 Zrotation Xrotation Yrotation
					JOINT LeftForeArm
					{
						OFFSET	0.000000	-30.480000	0.000000
						CHANNELS 3 Zrotation Xrotation Yrotation
						JOINT LeftHand
						{
							OFFSET	0.000000	-24.130000	0.000000
							CHANNELS 3 Zrotation Xrotation Yrotation
							End Site
							{
								OFFSET	0.000000	-17.780000	0.000000
							}
						}
					}
				}
			}
			JOINT RightCollar
			{
				OFFSET	-7.620000	33.020000	2.540000
				CHANNELS 3 Zrotation Xrotation Yrotation
				JOINT RightShoulder
				{
					OFFSET	-12.700000	0.000000	0.000000
					CHANNELS 3 Zrotation Xrotation Yrotation
					JOINT RightForeArm
					{
						OFFSET	0.000000	-30.480000	0.000000
						CHANNELS 3 Zrotation Xrotation Yrotation
						JOINT RightHand
						{
							OFFSET	0.000000	-24.130000	0.000000
							CHANNELS 3 Zrotation Xrotation Yrotation
							End Site
							{
								OFFSET	0.000000	-17.780000	0.000000
							}
						}
					}
				}
			}
			JOINT Neck
			{
				OFFSET	0.000000	38.099999	2.540000
				CHANNELS 3 Zrotation Xrotation Yrotation
				JOINT Head
				{
					OFFSET	0.000000	16.510000	0.000000
					CHANNELS 3 Zrotation Xrotation Yrotation
					End Site
					{
						OFFSET	0.000000	10.160000	0.000000
					}
				}
			}
		}
	}
}
MOTION
Frames:     18
Frame Time: 0.016667
0.000000	95.499179	0.000000	0.559774	3.960563	-0.389301	0.128245	-0.378956	-2.592073	0.556593	-3.751621	0.476991	5.164136	1.391994	1.253362	0.	0.	0.	0.635494	0.628896	0.771700	1.073821	-5.867894	3.186362	-6.866232	-0.289394	-6.150887	0.	0.	0.	-0.000001	0.000001	-0.000001	0.221154	-6.176098	-2.201536	-0.345671	-0.130525	2.020065	1.326046	-0.857591	0.444753	-0.719675	-1.205165	-3.306715	4.972844	4.531775	-9.745943	-0.281144	-0.521464	-0.100424	0.570528	0.133647	1.089398	-0.662048	2.054114	1.154495	-6.469687	2.368304	3.855120	-1.533728	-1.872051	1.393536	-1.533728	-1.872051	1.393536	
0.000000	95.499179	0.000000	0.559774	3.960563	-0.389301	0.128245	-0.378956	-2.592073	0.556593	-3.751621	0.476991	5.164136	1.391994	1.253362	0.	0.	0.	0.597851	0.562258	0.731861	1.000436	-5.752126	3.128125	-6.717487	-0.378408	-5.966383	0.	0.	0.	-0.000001	0.000001	-0.000001	0.141948	-6.171540	-2.126817	-0.266999	-0.131662	1.936820	1.398275	-0.831674	0.528011	-0.793868	-1.229380	-3.389259	5.044282	4.571035	-9.801834	-0.203040	-0.522694	-0.183671	0.570528	0.133647	1.089398	-0.662048	2.054114	1.154495	-6.469687	2.368304	3.855120	-1.529403	-1.819439	1.305547	-1.529403	-1.819440	1.305547	
0.000000	95.499179	0.000000	0.559774	3.960563	-0.389301	0.128245	-0.378956	-2.592073	0.556593	-3.751621	0.476991	5.164136	1.391994	1.253362	0.	0.	0.	0.666913	0.521306	0.659633	1.005539	-5.686057	3.117278	-6.784289	-0.408088	-5.880607	0.	0.	0.	-0.000001	0.000001	-0.000001	0.141948	-6.171540	-2.126817	-0.266999	-0.131662	1.936820	1.398275	-0.831674	0.528011	-0.720167	-1.209363	-3.304042	5.020772	4.612880	-9.820814	-0.264027	-0.451518	-0.216264	0.631704	0.063026	1.122217	-0.662048	2.054114	1.154495	-6.469687	2.368304	3.855120	-1.536779	-1.782107	1.346200	-1.536778	-1.782107	1.346200	
0.011453	95.490459	-0.006115	0.559774	3.960563	-0.389301	0.128245	-0.378956	-2.592073	0.556593	-3.751621	0.476991	5.060455	1.359359	1.289009	0.	0.	0.	0.666913	0.521306	0.659633	0.917334	-5.707490	3.043107	-6.695024	-0.399194	-5.813684	0.	0.	0.	-0.000001	0.000001	-0.000001	0.062713	-6.167081	-2.052100	-0.188305	-0.132914	1.853582	1.398275	-0.831674	0.528011	-0.756735	-1.053804	-3.303917	5.179137	4.572793	-9.801432	-0.185798	-0.452774	-0.299505	0.631704	0.063026	1.122217	-0.662048	2.054114	1.154495	-6.469687	2.368304	3.855120	-1.499300	-1.781685	1.303941	-1.499299	-1.781685	1.303942	
0.011453	95.490459	-0.006115	0.559774	3.960563	-0.389301	0.128245	-0.378956	-2.592073	0.556593	-3.751621	0.476991	5.060455	1.359359	1.289009	0.	0.	0.	0.666913	0.521306	0.659633	0.917334	-5.707490	3.043107	-6.695024	-0.399194	-5.813684	0.	0.	0.	-0.000001	0.000001	-0.000001	0.062713	-6.167081	-2.052100	-0.272812	-0.085174	1.800150	1.482030	-0.880728	0.582537	-0.672637	-1.036951	-3.376308	5.132234	4.631213	-9.663201	-0.185798	-0.452774	-0.299505	0.631704	0.063026	1.122217	-0.662048	2.054114	1.154495	-6.469687	2.368304	3.855120	-1.532211	-1.729469	1.258327	-1.532211	-1.729469	1.258327	
0.011453	95.490459	-0.006115	0.559774	3.960563	-0.389301	0.128245	-0.378956	-2.592073	0.556593	-3.751621	0.476991	5.060455	1.359359	1.289009	0.	0.	0.	0.666913	0.521306	0.659633	0.917334	-5.707490	3.043107	-6.659013	-0.423086	-5.707720	0.	0.	0.	-0.000001	0.000001	-0.000001	0.067260	-6.163795	-1.889603	-0.277462	-0.087836	1.638127	1.450136	-0.810786	0.759855	-0.591199	-0.994146	-3.488159	5.157155	4.689340	-9.778322	-0.191488	-0.455681	-0.461529	0.631704	0.063026	1.122217	-0.662048	2.054114	1.154495	-6.547997	2.387125	3.919523	-1.538087	-1.727897	1.177309	-1.538087	-1.727897	1.177309	
0.105240	95.478880	-0.050325	0.559774	3.960563	-0.389301	0.128245	-0.378956	-2.592073	0.473518	-3.812547	0.582053	5.014094	1.349104	1.107242	0.	0.	0.	0.588006	0.379872	0.659713	0.909426	-5.588309	2.967254	-6.569687	-0.414046	-5.640773	0.	0.	0.	-0.000001	0.000001	-0.000001	0.067260	-6.163795	-1.889603	-0.277462	-0.087836	1.638127	1.450136	-0.810786	0.759855	-0.542917	-0.821901	-3.560609	5.112423	4.521707	-9.689460	-0.191488	-0.455681	-0.461529	0.631704	0.063026	1.122217	-0.662048	2.054114	1.154495	-6.601398	2.325395	3.941599	-1.545378	-1.690564	1.217985	-1.545378	-1.690564	1.217985	
0.122050	95.478899	-0.101811	0.559774	3.960563	-0.389301	0.128245	-0.378956	-2.592073	0.452984	-3.888659	0.567384	5.035184	1.425879	1.113834	0.	0.	0.	0.588006	0.379872	0.659713	0.882024	-5.517909	2.944515	-6.545988	-0.487582	-5.629006	0.	0.	0.	-0.000001	0.000001	-0.000001	0.067260	-6.163795	-1.889603	-0.277462	-0.087836	1.638127	1.450136	-0.810786	0.759855	-0.542917	-0.821901	-3.560609	5.137709	4.626021	-9.811478	-0.191488	-0.455681	-0.461529	0.548549	0.081529	1.196214	-0.576641	2.034732	1.080338	-6.601398	2.325395	3.941599	-1.545378	-1.690564	1.217985	-1.545378	-1.690564	1.217985	
0.180982	95.479578	-0.140700	0.559774	3.960563	-0.389301	0.128245	-0.378956	-2.592073	0.370112	-3.949681	0.672277	5.121443	1.475980	0.998352	0.	0.	0.	0.546941	0.305206	0.699629	0.969334	-5.336375	2.843821	-6.599911	-0.599648	-5.577184	0.	0.	0.	-0.000001	0.000001	-0.000001	0.071796	-6.160494	-1.727093	-0.394426	0.016023	1.476164	1.559707	-0.920122	0.762581	-0.542917	-0.821901	-3.560609	5.137709	4.626021	-9.811478	-0.197184	-0.458573	-0.623568	0.548549	0.081529	1.196214	-0.576641	2.034732	1.080338	-6.601398	2.325395	3.941599	-1.551170	-1.688966	1.136960	-1.551170	-1.688967	1.136961	
0.133856	95.469811	-0.156605	0.559774	3.960563	-0.389301	0.128245	-0.378956	-2.592073	0.456145	-3.959441	0.749755	4.933803	1.448299	0.961935	0.	0.	0.	0.509093	0.238423	0.659595	1.011596	-5.269361	2.883049	-6.599911	-0.599648	-5.577184	0.	0.	0.	-0.000001	0.000001	-0.000001	0.071796	-6.160494	-1.727093	-0.343742	0.096350	1.501737	1.506557	-0.999762	0.739077	-0.542917	-0.821901	-3.560609	5.137709	4.626021	-9.811478	-0.250093	-0.423895	-0.545718	0.601897	0.046607	1.118303	-0.629778	2.095424	1.014816	-6.551811	2.256425	4.001579	-1.551170	-1.688966	1.136960	-1.551170	-1.688967	1.136961	
0.133856	95.469811	-0.156605	0.559774	3.960563	-0.389301	0.128245	-0.378956	-2.592073	0.456145	-3.959441	0.749755	4.933803	1.448299	0.961935	0.	0.	0.	0.468120	0.163805	0.699406	1.049697	-5.195959	2.841882	-6.599911	-0.599648	-5.577184	0.	0.	0.	-0.000001	0.000001	-0.000001	-0.007461	-6.156357	-1.652345	-0.264715	0.094981	1.418478	1.578646	-0.973625	0.822532	-0.616545	-0.846220	-3.643081	5.137709	4.626021	-9.811478	-0.171823	-0.425400	-0.628977	0.620577	0.135714	1.136089	-0.717875	2.051292	1.049533	-6.541650	2.278413	3.876212	-1.513588	-1.688572	1.094724	-1.513588	-1.688573	1.094724	
0.145207	95.463842	-0.161336	0.537225	3.890508	-0.378879	0.150216	-0.308774	-2.601122	0.456145	-3.959441	0.749755	4.830057	1.416109	0.997700	0.	0.	0.	0.490178	0.233932	0.689941	1.005069	-5.040566	2.842092	-6.563483	-0.755537	-5.599392	0.	0.	0.	-0.000003	0.000000	-0.000001	0.100743	-6.002342	-1.572227	-0.348890	0.009186	1.338141	1.557223	-0.908361	0.844778	-0.596434	-0.911547	-3.666377	5.137709	4.626021	-9.811478	-0.317076	-0.439477	-0.741715	0.681770	0.065007	1.168930	-0.770885	2.112048	0.984035	-6.492112	2.209474	3.936244	-1.557940	-1.729654	1.053690	-1.557940	-1.729655	1.053691	
0.194218	95.463358	-0.141092	0.545426	3.803217	-0.356162	0.141365	-0.221597	-2.624611	0.383404	-3.938140	0.829583	4.904346	1.386692	0.915037	0.	0.	0.	0.554364	0.282704	0.734876	0.926583	-5.002588	2.771854	-6.563483	-0.755537	-5.599392	0.	0.	0.	-0.000002	0.000001	-0.000001	0.010322	-5.911069	-1.520790	-0.297909	0.065907	1.308395	1.582993	-0.968612	0.793019	-0.596434	-0.911547	-3.666377	5.073152	4.670846	-9.768661	-0.291615	-0.406242	-0.747041	0.735102	0.030008	1.091145	-0.770885	2.112048	0.984035	-6.498276	2.332749	3.844917	-1.520397	-1.729286	1.011494	-1.520396	-1.729286	1.011494	
0.278869	95.464298	-0.141170	0.545426	3.803217	-0.356162	0.032246	-0.222385	-2.504995	0.484116	-3.933378	0.709221	4.904346	1.386692	0.915037	0.	0.	0.	0.554364	0.282704	0.734876	0.838473	-5.023481	2.698401	-6.473933	-0.746428	-5.532163	0.	0.	0.	-0.000002	0.000001	-0.000001	0.093958	-5.911814	-1.433364	-0.329937	0.145109	1.255180	1.446965	-1.069671	0.840964	-0.514480	-0.890623	-3.739208	5.073152	4.670846	-9.768661	-0.375357	-0.407184	-0.825863	0.651914	0.048597	1.165010	-0.685362	2.092765	0.909926	-6.498276	2.332749	3.844917	-1.563754	-1.728038	0.972702	-1.563754	-1.728039	0.972702	
0.290231	95.455471	-0.147281	0.545426	3.803217	-0.356162	0.032246	-0.222385	-2.504995	0.484116	-3.933378	0.709221	4.800606	1.354594	0.950685	0.	0.	0.	0.513448	0.208164	0.774715	0.876810	-4.950089	2.657477	-6.473933	-0.746428	-5.532163	0.	0.	0.	-0.000002	0.000001	-0.000001	0.093958	-5.911814	-1.433364	-0.329937	0.145109	1.255180	1.519039	-1.043546	0.924545	-0.588234	-0.914843	-3.821708	5.073152	4.670846	-9.768661	-0.375357	-0.407184	-0.825863	0.651914	0.048597	1.165010	-0.685362	2.092765	0.909926	-6.498276	2.332749	3.844917	-1.563754	-1.728038	0.972702	-1.563754	-1.728039	0.972702	
0.333164	95.458842	-0.194988	0.545426	3.803217	-0.356162	-0.022750	-0.284341	-2.445400	0.532265	-3.869639	0.648675	4.800606	1.354594	0.950685	0.	0.	0.	0.475510	0.141227	0.734747	0.891987	-4.812738	2.674382	-6.450194	-0.819707	-5.520344	0.	0.	0.	-0.000002	0.000001	-0.000001	0.093958	-5.911814	-1.433364	-0.329937	0.145109	1.255180	1.519039	-1.043546	0.924545	-0.514792	-0.895299	-3.736639	5.007798	4.639227	-9.850375	-0.298842	-0.349287	-0.773938	0.576232	-0.010909	1.114225	-0.753774	2.137247	0.963553	-6.428389	2.293198	3.788962	-1.563754	-1.728038	0.972702	-1.563754	-1.728039	0.972702	
0.295753	95.460645	-0.292394	0.545426	3.803217	-0.356162	0.038390	-0.337203	-2.390838	0.454989	-3.902231	0.618782	4.812529	1.434402	0.918286	0.	0.	0.	0.475510	0.141227	0.734747	0.891987	-4.812738	2.674382	-6.450194	-0.819707	-5.520344	0.	0.	0.	-0.000002	0.000001	-0.000001	0.177592	-5.912429	-1.345928	-0.412918	0.144217	1.176350	1.519039	-1.043546	0.924545	-0.514792	-0.895299	-3.736639	4.935925	4.599809	-9.794660	-0.382502	-0.350222	-0.852768	0.576232	-0.010909	1.114225	-0.753774	2.137247	0.963553	-6.428389	2.293198	3.788962	-1.607109	-1.726762	0.933906	-1.607109	-1.726762	0.933907	
0.323850	95.451585	-0.350120	0.545426	3.803217	-0.356162	0.038390	-0.337203	-2.390838	0.434221	-3.978439	0.604236	4.730175	1.479116	0.960830	0.	0.	0.	0.434685	0.066735	0.774488	0.930377	-4.739430	2.633404	-6.520658	-0.830784	-5.377630	0.	0.	0.	-0.000002	0.000001	-0.000001	0.098347	-5.908470	-1.270951	-0.333816	0.142601	1.093200	1.508283	-1.038835	1.079512	-0.506552	-0.898816	-3.891856	4.935925	4.599809	-9.794660	-0.304118	-0.351881	-0.935918	0.576232	-0.010909	1.114225	-0.707026	2.207924	1.022010	-6.605165	2.340301	3.910940	-1.561896	-1.686312	0.853114	-1.561895	-1.686312	0.853114	
